<svg viewBox="0 0 194 192" xmlns="http://www.w3.org/2000/svg" fill-rule="evenodd" clip-rule="evenodd" stroke-miterlimit="2"><path fill="none" d="M0-449.167h1147.22v668.889H0z"/><path fill="#fff" d="M0-.972h194.444v194.444H0z"/><path d="M194.444-.972H0v194.444h194.444V-.972zM175 18.472H19.444v155.556H175V18.472z" fill="#0088af"/><path d="M33.904 54.494H47.69v45.231c0 7.026.171 11.602.514 13.729.609 3.684 2.064 6.532 4.367 8.545s5.338 3.019 9.105 3.019c3.197 0 5.804-.712 7.821-2.136 2.017-1.424 3.397-3.399 4.139-5.925.742-2.525 1.113-7.947 1.113-16.264V54.494h13.786v43.864c0 11.203-.598 19.302-1.795 24.296-1.196 4.994-3.892 9.038-8.089 12.134-4.196 3.095-9.731 4.642-16.605 4.642-7.14 0-12.713-1.281-16.72-3.845-4.007-2.563-6.912-6.171-8.716-10.823-1.804-4.653-2.706-13.226-2.706-25.721V54.494zM103.061 54.494h27.429c7.49 0 12.756.683 15.797 2.051 3.042 1.367 5.608 3.778 7.699 7.234s3.136 7.368 3.136 11.735c0 4.026-.896 7.662-2.689 10.909-1.793 3.247-4.119 5.649-6.979 7.207 4.059 1.443 7.235 3.911 9.53 7.405 2.295 3.494 3.442 7.748 3.442 12.761 0 6.076-1.462 11.212-4.386 15.409-2.924 4.196-6.38 6.788-10.368 7.776-2.772.683-9.21 1.025-19.312 1.025h-23.299V54.494zm13.786 13.9v19.311h9.115c5.468 0 8.848-.095 10.14-.285 2.354-.38 4.196-1.376 5.525-2.99 1.33-1.615 1.994-3.808 1.994-6.58 0-2.469-.541-4.472-1.623-6.01-1.083-1.538-2.393-2.497-3.931-2.877-1.538-.38-5.953-.569-13.245-.569h-7.975zm0 33.211v22.274h12.842c5.632 0 9.247-.294 10.845-.881 1.598-.587 2.94-1.743 4.024-3.466 1.084-1.724 1.627-3.911 1.627-6.563 0-2.728-.581-4.972-1.741-6.733-1.161-1.762-2.702-2.974-4.624-3.637-1.921-.663-5.85-.994-11.786-.994h-11.187z" fill="#0088af" fill-rule="nonzero" stroke="#0088af" stroke-width="2.92"/></svg>